<svg xmlns="http://www.w3.org/2000/svg" viewBox="0 0 24 24">
  <!-- Rounded rect + play cutout using evenodd -->
  <path fill="black" fill-rule="evenodd" d="
    M21.6 7.2
    c-.2-.8-.8-1.4-1.6-1.6
    C18.6 5.2 12 5.2 12 5.2
    s-6.6 0-8 .4
    c-.8.2-1.4.8-1.6 1.6
    C2 8.6 2 12 2 12
    s0 3.4.4 4.8
    c.2.8.8 1.4 1.6 1.6
    c1.4.4 8 .4 8 .4
    s6.6 0 8-.4
    c.8-.2 1.4-.8 1.6-1.6
    C22 15.4 22 12 22 12
    s0-3.4-.4-4.8
    Z

    M10 15.5
    V8.5
    L16 12
    L10 15.5
    Z
  "></path>
</svg>
